Coordinates
version=1
nRows=16
nColumns=42
inDegrees=yes

Units are S.I. units (second, meters, Newtons, ...)
If the header above contains a line with 'inDegrees', this indicates whether rotational values are in degrees (yes) or radians (no).

endheader
time	pelvis_tilt	pelvis_list	pelvis_rotation	pelvis_tx	pelvis_ty	pelvis_tz	hip_flexion_r	hip_adduction_r	hip_rotation_r	knee_angle_r	knee_adduction_r	knee_angle_r_beta	ankle_angle_r	subtalar_angle_r	mtp_angle_r	hip_flexion_l	hip_adduction_l	hip_rotation_l	knee_angle_l	knee_adduction_l	knee_angle_l_beta	ankle_angle_l	subtalar_angle_l	mtp_angle_l	lumbar_extension	lumbar_bending	lumbar_rotation	arm_flex_r	arm_add_r	arm_rot_r	elbow_flex_r	pro_sup_r	wrist_flex_r	wrist_dev_r	arm_flex_l	arm_add_l	arm_rot_l	elbow_flex_l	pro_sup_l	wrist_flex_l	wrist_dev_l
      0.00000000	     13.67038415	     -1.27318480	      3.28900576	     -1.13361297	      0.85295333	     -0.26847030	     10.96772805	      1.41540011	     -7.99588787	     16.75567951	      1.68153930	      0.29244178	     12.44503128	     -9.32187629	     -9.46256825	    -26.48807241	     -3.67210432	    -11.63007352	      1.77540956	      9.03293806	      0.03098674	     22.84335965	      7.25937531	     -9.46256825	    -26.54923150	      1.85899084	      2.57509393	    -13.59414882	     -5.68680190	    -11.22829293	     29.58435580	     90.00000001	      0.00000000	      0.00000000	     29.18240019	     -8.90753265	      2.28244150	     42.21220333	     90.00000001	      0.00000000	      0.00000000
      0.01000000	     13.60063443	     -1.03451820	      3.49985860	     -1.12325930	      0.85104454	     -0.26840985	     10.99268482	      1.10131869	     -8.62851001	     14.12466471	      1.75609462	      0.24652190	     12.34782870	     -7.58886084	     -9.39591822	    -27.12517243	     -3.46540089	    -11.39886020	      1.89786880	      8.78813729	      0.03312406	     23.22124879	      7.48031595	     -9.39591822	    -26.45364547	      1.72767174	      2.37913990	    -14.17191292	     -5.54524208	    -11.27279476	     29.40210613	     90.00000001	      0.00000000	      0.00000000	     29.71603305	     -8.95079641	      2.63242728	     43.17663236	     90.00000001	      0.00000000	      0.00000000
      0.02000000	     13.42312936	     -0.66787014	      3.68123906	     -1.11296563	      0.84905815	     -0.26841338	     11.19525304	      0.58599804	     -9.36600015	     11.96901871	      1.85417251	      0.20889878	     12.03937375	     -6.02410853	     -9.35907091	    -27.58456241	     -3.04455171	    -11.10669763	      2.10718860	      8.34935150	      0.03677738	     23.62189832	      7.67144923	     -9.35907091	    -26.26539914	      1.46877148	      2.14522060	    -14.67631480	     -5.39870328	    -11.37517740	     29.24909085	     90.00000001	      0.00000000	      0.00000000	     30.21041862	     -8.98570600	      2.94286752	     44.00084225	     90.00000001	      0.00000000	      0.00000000
      0.03000000	     13.35930826	     -0.44378184	      3.99736874	     -1.10236248	      0.84723302	     -0.26821845	     11.47650170	      0.17885804	    -11.31840923	     10.66949452	      1.81315546	      0.18621781	     12.83233113	     -2.36595855	     -9.11771864	    -28.17640874	     -2.97747117	    -10.77824764	      2.38015359	      8.15729571	      0.04154152	     23.83590534	      7.90160859	     -9.11771864	    -26.16646808	      1.38032263	      1.92385680	    -15.09902804	     -5.13852100	    -11.90335837	     29.02879927	     90.00000001	      0.00000000	      0.00000000	     30.58669112	     -9.16179349	      3.84924785	     45.00108294	     90.00000001	      0.00000000	      0.00000000
      0.04000000	     13.17636585	     -0.14698812	      4.22074641	     -1.09193212	      0.84548817	     -0.26808411	     11.66918252	     -0.29687780	    -11.97356170	      9.29213934	      1.98032902	      0.16217843	     12.57733914	     -1.27737374	     -9.07852982	    -28.56679934	     -2.71219393	    -10.41399590	      2.77264133	      7.75758211	      0.04839172	     24.03185544	      8.07412138	     -9.07852982	    -25.98004074	      1.21425939	      1.69351930	    -15.42909999	     -5.00202817	    -11.99586836	     28.83941563	     90.00000001	      0.00000000	      0.00000000	     30.92319994	     -9.19431526	      4.16283225	     45.74209900	     90.00000001	      0.00000000	      0.00000000
      0.05000000	     12.82879455	      0.04696443	      4.18213038	     -1.08134656	      0.84358203	     -0.26747380	     12.28789490	     -0.59268492	    -12.53291766	      8.80225208	      1.97795227	      0.15362828	     12.49048175	     -1.10329003	     -9.06459174	    -28.81233799	     -2.52817861	    -10.41092329	      3.20708966	      7.57090909	      0.05597427	     24.08170956	      8.10566292	     -9.06459174	    -25.58590445	      1.05633432	      1.79152504	    -15.76405024	     -4.90899746	    -12.00813507	     28.71587049	     90.00000001	      0.00000000	      0.00000000	     31.21764015	     -9.08830069	      4.25306934	     46.14552856	     90.00000001	      0.00000000	      0.00000000
      0.06000000	     12.81862038	      0.21572676	      4.73701663	     -1.07051463	      0.84241208	     -0.26737154	     12.28642153	     -1.02392833	    -14.20573091	      8.42600241	      2.07235355	      0.14706148	     12.74567217	      1.41526465	     -8.89812995	    -29.05451075	     -2.66615515	    -10.72118935	      4.37449851	      7.15570523	      0.07634940	     24.65554070	      9.61970081	     -8.89812995	    -25.55093835	      1.13692188	      1.33200081	    -15.83963651	     -4.61580282	    -12.99093517	     28.37866180	     90.00000001	      0.00000000	      0.00000000	     31.26538626	     -9.46528671	      5.52240206	     47.15824695	     90.00000001	      0.00000000	      0.00000000
      0.07000000	     12.50464381	      0.30842201	      4.82624402	     -1.05965837	      0.84098695	     -0.26671799	     12.66439139	     -1.20417371	    -14.50673635	      8.39689398	      2.04177633	      0.14655345	     12.61654100	      1.36503898	     -8.88646034	    -29.20108320	     -2.65107577	    -10.54592574	      5.05452473	      6.85168279	      0.08821810	     24.61638284	      9.64756734	     -8.88646034	    -25.18101545	      1.13996076	      1.36091286	    -16.03305693	     -4.56594157	    -12.99333690	     28.23860747	     90.00000001	      0.00000000	      0.00000000	     31.33933887	     -9.35390313	      5.60266283	     47.49328427	     90.00000001	      0.00000000	      0.00000000
      0.08000000	     12.49590068	      0.25962313	      5.20835867	     -1.04847733	      0.84018655	     -0.26609269	     12.65089715	     -1.29435545	    -15.55261366	      8.84173032	      2.00677723	      0.15431731	     12.34291252	      1.16341255	     -8.70434792	    -29.27824292	     -3.10998519	    -11.66791157	      6.67590876	      6.61674851	      0.11651659	     25.17673257	     11.48285626	     -8.70434792	    -25.09666486	      1.39155902	      1.09453541	    -15.94938067	     -4.39918435	    -13.57462967	     27.87281890	     90.00000001	      0.00000000	      0.00000000	     31.19973814	     -9.57935574	      6.22434977	     48.13381570	     90.00000001	      0.00000000	      0.00000000
      0.09000000	     12.31542261	      0.25337514	      5.38771360	     -1.03726338	      0.83939598	     -0.26518436	     12.82600589	     -1.34476405	    -16.15931441	      9.53815458	      1.84104609	      0.16647220	     12.06027238	      0.45950126	     -8.68296074	    -29.35817188	     -3.32347976	    -11.66447313	      7.79795219	      6.28495732	      0.13609994	     24.94870636	     11.31270227	     -8.68296074	    -24.84808568	      1.51764589	      1.05018774	    -15.93332429	     -4.34455997	    -13.60067024	     27.64927451	     90.00000001	      0.00000000	      0.00000000	     31.04935871	     -9.57209599	      6.38553265	     48.40704456	     90.00000001	      0.00000000	      0.00000000
      0.10000000	     12.02478636	      0.18116293	      5.42477215	     -1.02566261	      0.83874005	     -0.26413209	     12.91048813	     -1.27444007	    -16.14661149	     10.07947887	      1.76121280	      0.17592009	     11.90591991	      0.22421506	     -8.67450808	    -29.41154141	     -3.49294150	    -11.31103435	      8.69439797	      5.96519492	      0.15174587	     24.74058502	     11.31837936	     -8.67450808	    -24.42204321	      1.68580209	      1.14107238	    -15.95144173	     -4.36890712	    -13.62156936	     27.58051925	     90.00000001	      0.00000000	      0.00000000	     30.72836085	     -9.49059255	      6.44106701	     48.44578247	     90.00000001	      0.00000000	      0.00000000
      0.11000000	     12.19344433	     -0.27358608	      5.72502291	     -1.01401203	      0.83890034	     -0.26264308	     12.66941173	     -0.73481998	    -17.20580937	     11.31499803	      1.44594804	      0.19748397	     10.80654894	     -2.41977720	     -8.56311456	    -29.41072225	     -4.54862526	    -12.70134858	     10.89226437	      5.81388979	      0.19010588	     24.62336408	     12.40176811	     -8.56311456	    -24.49746945	      2.30598381	      1.18676409	    -15.57854593	     -4.21313574	    -14.45822942	     27.08585329	     90.00000001	      0.00000000	      0.00000000	     30.42425932	     -9.51462701	      6.71248281	     48.61888927	     90.00000001	      0.00000000	      0.00000000
      0.12000000	     12.17175344	     -0.54902971	      5.76352098	     -1.00220415	      0.83916378	     -0.26113077	     12.54292607	     -0.42126281	    -17.81937392	     12.51953450	      1.27819921	      0.21850710	     10.38246954	     -3.46445373	     -8.54331823	    -29.42398244	     -5.08095655	    -12.70938382	     12.49861253	      5.53973867	      0.21814194	     23.80976604	     11.81414266	     -8.54331823	    -24.36533063	      2.67089351	      1.37196273	    -15.32829299	     -4.26198868	    -14.40957309	     26.84566054	     90.00000001	      0.00000000	      0.00000000	     29.99910981	     -9.37783773	      6.58937466	     48.50780379	     90.00000001	      0.00000000	      0.00000000
      0.13000000	     12.20953575	     -0.97680205	      5.81221816	     -0.99015641	      0.83982890	     -0.25947128	     12.26039728	      0.09710026	    -18.36830415	     13.67120954	      1.11751321	      0.23860762	      9.78726431	     -4.67303844	     -8.52035753	    -29.41137595	     -5.80226029	    -12.67494468	     14.27167022	      5.29194411	      0.24908764	     22.80595579	     11.09428179	     -8.52035753	    -24.26551377	      3.20352688	      1.59023017	    -14.98536363	     -4.34496774	    -14.41427120	     26.58134538	     90.00000001	      0.00000000	      0.00000000	     29.45466569	     -9.23935159	      6.40363163	     48.28422268	     90.00000001	      0.00000000	      0.00000000
      0.14000000	     12.34846582	     -1.40409059	      5.75946533	     -0.97810785	      0.84100644	     -0.25762179	     11.74789342	      0.65796651	    -18.62729565	     14.64327149	      1.04968687	      0.25557330	      9.33112378	     -5.73335000	     -8.50699635	    -29.37893195	     -6.52426606	    -12.55173545	     16.32549942	      5.16748360	      0.28493372	     21.45150706	     10.10994583	     -8.50699635	    -24.30108796	      3.69787618	      1.88514626	    -14.52200548	     -4.45896359	    -14.41238889	     26.34329827	     90.00000001	      0.00000000	      0.00000000	     28.84192363	     -9.08647377	      6.20159781	     47.97277522	     90.00000001	      0.00000000	      0.00000000
      0.15000000	     12.52715056	     -2.07150860	      5.72732569	     -0.96575158	      0.84251100	     -0.25563507	     11.05978741	      1.57115654	    -18.69267902	     15.35208313	      0.96616610	      0.26794440	      8.61239151	     -7.12549683	     -8.48452050	    -29.32181996	     -7.47704542	    -12.30126568	     18.46974493	      5.01127618	      0.32235786	     19.62156842	      8.42802996	     -8.48452050	    -24.31239500	      4.44819140	      2.23472295	    -14.00085310	     -4.62302422	    -14.40308439	     26.08380457	     90.00000001	      0.00000000	      0.00000000	     28.09926453	     -8.90456838	      5.87343712	     47.53016710	     90.00000001	      0.00000000	      0.00000000
